<mxfile host="app.diagrams.net" modified="2020-12-16T15:09:11.059Z" agent="5.0 (Windows NT 10.0; Win64; x64) AppleWebKit/537.36 (KHTML, like Gecko) Chrome/87.0.4280.88 Safari/537.36" etag="kLY_MFm7uBjA05uNW1rO" version="14.0.4" type="github">
  <diagram id="x0W-qn5zlAIVVUcVw8hS" name="Page-1">
    <mxGraphModel dx="1422" dy="794" grid="1" gridSize="10" guides="1" tooltips="1" connect="1" arrows="1" fold="1" page="1" pageScale="1" pageWidth="850" pageHeight="1100" math="0" shadow="0">
      <root>
        <mxCell id="0" />
        <mxCell id="1" parent="0" />
        <mxCell id="7Y8EHs25oN9bVDLUrfh7-1" value="Hompage" style="whiteSpace=wrap;html=1;aspect=fixed;" vertex="1" parent="1">
          <mxGeometry x="80" y="150" width="80" height="80" as="geometry" />
        </mxCell>
        <mxCell id="7Y8EHs25oN9bVDLUrfh7-3" value="Login" style="rhombus;whiteSpace=wrap;html=1;" vertex="1" parent="1">
          <mxGeometry x="199" y="160" width="80" height="80" as="geometry" />
        </mxCell>
        <mxCell id="7Y8EHs25oN9bVDLUrfh7-4" value="Users" style="shape=cylinder3;whiteSpace=wrap;html=1;boundedLbl=1;backgroundOutline=1;size=15;" vertex="1" parent="1">
          <mxGeometry x="80" y="55" width="80" height="80" as="geometry" />
        </mxCell>
        <mxCell id="7Y8EHs25oN9bVDLUrfh7-5" value="" style="endArrow=classic;html=1;entryX=0.5;entryY=0;entryDx=0;entryDy=0;" edge="1" parent="1" target="7Y8EHs25oN9bVDLUrfh7-3">
          <mxGeometry width="50" height="50" relative="1" as="geometry">
            <mxPoint x="240" y="120" as="sourcePoint" />
            <mxPoint x="280" y="80" as="targetPoint" />
          </mxGeometry>
        </mxCell>
        <mxCell id="7Y8EHs25oN9bVDLUrfh7-6" value="" style="endArrow=none;html=1;exitX=1;exitY=1;exitDx=0;exitDy=-15;exitPerimeter=0;" edge="1" parent="1" source="7Y8EHs25oN9bVDLUrfh7-4">
          <mxGeometry width="50" height="50" relative="1" as="geometry">
            <mxPoint x="180" y="130" as="sourcePoint" />
            <mxPoint x="240" y="120" as="targetPoint" />
          </mxGeometry>
        </mxCell>
        <mxCell id="7Y8EHs25oN9bVDLUrfh7-7" value="" style="endArrow=classic;html=1;entryX=0;entryY=0.5;entryDx=0;entryDy=0;" edge="1" parent="1" target="7Y8EHs25oN9bVDLUrfh7-3">
          <mxGeometry width="50" height="50" relative="1" as="geometry">
            <mxPoint x="160" y="200" as="sourcePoint" />
            <mxPoint x="200" y="350" as="targetPoint" />
          </mxGeometry>
        </mxCell>
        <mxCell id="7Y8EHs25oN9bVDLUrfh7-8" value="" style="endArrow=classic;html=1;exitX=1;exitY=0.5;exitDx=0;exitDy=0;" edge="1" parent="1" source="7Y8EHs25oN9bVDLUrfh7-3">
          <mxGeometry width="50" height="50" relative="1" as="geometry">
            <mxPoint x="340" y="200" as="sourcePoint" />
            <mxPoint x="360" y="200" as="targetPoint" />
          </mxGeometry>
        </mxCell>
        <mxCell id="7Y8EHs25oN9bVDLUrfh7-9" value="True" style="edgeLabel;html=1;align=center;verticalAlign=middle;resizable=0;points=[];" vertex="1" connectable="0" parent="7Y8EHs25oN9bVDLUrfh7-8">
          <mxGeometry x="-0.2593" y="-3" relative="1" as="geometry">
            <mxPoint as="offset" />
          </mxGeometry>
        </mxCell>
        <mxCell id="7Y8EHs25oN9bVDLUrfh7-10" value="False" style="endArrow=none;html=1;entryX=0.5;entryY=1;entryDx=0;entryDy=0;" edge="1" parent="1" target="7Y8EHs25oN9bVDLUrfh7-3">
          <mxGeometry width="50" height="50" relative="1" as="geometry">
            <mxPoint x="160" y="240" as="sourcePoint" />
            <mxPoint x="220" y="240" as="targetPoint" />
          </mxGeometry>
        </mxCell>
        <mxCell id="7Y8EHs25oN9bVDLUrfh7-11" value="" style="endArrow=classic;html=1;entryX=1;entryY=1;entryDx=0;entryDy=0;" edge="1" parent="1" target="7Y8EHs25oN9bVDLUrfh7-1">
          <mxGeometry width="50" height="50" relative="1" as="geometry">
            <mxPoint x="160" y="240" as="sourcePoint" />
            <mxPoint x="170" y="310" as="targetPoint" />
          </mxGeometry>
        </mxCell>
        <mxCell id="7Y8EHs25oN9bVDLUrfh7-12" value="Owner page" style="whiteSpace=wrap;html=1;aspect=fixed;" vertex="1" parent="1">
          <mxGeometry x="360" y="160" width="80" height="80" as="geometry" />
        </mxCell>
        <mxCell id="7Y8EHs25oN9bVDLUrfh7-14" value="Incomming order" style="whiteSpace=wrap;html=1;aspect=fixed;" vertex="1" parent="1">
          <mxGeometry x="360" y="260" width="80" height="80" as="geometry" />
        </mxCell>
        <mxCell id="7Y8EHs25oN9bVDLUrfh7-16" value="Edit Ingredience" style="whiteSpace=wrap;html=1;aspect=fixed;" vertex="1" parent="1">
          <mxGeometry x="550" y="70" width="80" height="80" as="geometry" />
        </mxCell>
        <mxCell id="7Y8EHs25oN9bVDLUrfh7-17" value="Edit Prices" style="whiteSpace=wrap;html=1;aspect=fixed;" vertex="1" parent="1">
          <mxGeometry x="640" y="70" width="80" height="80" as="geometry" />
        </mxCell>
        <mxCell id="7Y8EHs25oN9bVDLUrfh7-18" value="Edit Homepage" style="whiteSpace=wrap;html=1;aspect=fixed;" vertex="1" parent="1">
          <mxGeometry x="730" y="70" width="80" height="80" as="geometry" />
        </mxCell>
        <mxCell id="7Y8EHs25oN9bVDLUrfh7-19" value="Edit restaurant menu" style="whiteSpace=wrap;html=1;aspect=fixed;" vertex="1" parent="1">
          <mxGeometry x="460" y="70" width="80" height="80" as="geometry" />
        </mxCell>
        <mxCell id="7Y8EHs25oN9bVDLUrfh7-20" value="" style="endArrow=none;html=1;exitX=0.75;exitY=0;exitDx=0;exitDy=0;endFill=0;" edge="1" parent="1" source="7Y8EHs25oN9bVDLUrfh7-12">
          <mxGeometry width="50" height="50" relative="1" as="geometry">
            <mxPoint x="370" y="120" as="sourcePoint" />
            <mxPoint x="420" y="40" as="targetPoint" />
          </mxGeometry>
        </mxCell>
        <mxCell id="7Y8EHs25oN9bVDLUrfh7-21" value="" style="endArrow=classic;html=1;entryX=0.25;entryY=0;entryDx=0;entryDy=0;" edge="1" parent="1" target="7Y8EHs25oN9bVDLUrfh7-19">
          <mxGeometry width="50" height="50" relative="1" as="geometry">
            <mxPoint x="480" y="40" as="sourcePoint" />
            <mxPoint x="540" y="250" as="targetPoint" />
          </mxGeometry>
        </mxCell>
        <mxCell id="7Y8EHs25oN9bVDLUrfh7-25" value="" style="endArrow=classic;html=1;entryX=0.25;entryY=0;entryDx=0;entryDy=0;" edge="1" parent="1" target="7Y8EHs25oN9bVDLUrfh7-16">
          <mxGeometry width="50" height="50" relative="1" as="geometry">
            <mxPoint x="570" y="40" as="sourcePoint" />
            <mxPoint x="570" y="50" as="targetPoint" />
          </mxGeometry>
        </mxCell>
        <mxCell id="7Y8EHs25oN9bVDLUrfh7-26" value="" style="endArrow=classic;html=1;entryX=0.25;entryY=0;entryDx=0;entryDy=0;" edge="1" parent="1" target="7Y8EHs25oN9bVDLUrfh7-17">
          <mxGeometry width="50" height="50" relative="1" as="geometry">
            <mxPoint x="660" y="40" as="sourcePoint" />
            <mxPoint x="500" y="90" as="targetPoint" />
          </mxGeometry>
        </mxCell>
        <mxCell id="7Y8EHs25oN9bVDLUrfh7-27" value="" style="endArrow=classic;html=1;entryX=0.25;entryY=0;entryDx=0;entryDy=0;" edge="1" parent="1" target="7Y8EHs25oN9bVDLUrfh7-18">
          <mxGeometry width="50" height="50" relative="1" as="geometry">
            <mxPoint x="750" y="40" as="sourcePoint" />
            <mxPoint x="510" y="100" as="targetPoint" />
          </mxGeometry>
        </mxCell>
        <mxCell id="7Y8EHs25oN9bVDLUrfh7-28" value="" style="endArrow=none;html=1;" edge="1" parent="1">
          <mxGeometry width="50" height="50" relative="1" as="geometry">
            <mxPoint x="420" y="40" as="sourcePoint" />
            <mxPoint x="750" y="40" as="targetPoint" />
          </mxGeometry>
        </mxCell>
        <mxCell id="7Y8EHs25oN9bVDLUrfh7-30" value="Pruducts" style="shape=cylinder3;whiteSpace=wrap;html=1;boundedLbl=1;backgroundOutline=1;size=15;" vertex="1" parent="1">
          <mxGeometry x="610" y="221" width="60" height="50" as="geometry" />
        </mxCell>
        <mxCell id="7Y8EHs25oN9bVDLUrfh7-31" value="" style="endArrow=classic;html=1;entryX=0.25;entryY=1;entryDx=0;entryDy=0;" edge="1" parent="1" target="7Y8EHs25oN9bVDLUrfh7-19">
          <mxGeometry width="50" height="50" relative="1" as="geometry">
            <mxPoint x="480" y="200" as="sourcePoint" />
            <mxPoint x="540" y="160" as="targetPoint" />
          </mxGeometry>
        </mxCell>
        <mxCell id="7Y8EHs25oN9bVDLUrfh7-32" value="" style="endArrow=classic;html=1;entryX=0.25;entryY=1;entryDx=0;entryDy=0;" edge="1" parent="1">
          <mxGeometry width="50" height="50" relative="1" as="geometry">
            <mxPoint x="570" y="199.9999999999999" as="sourcePoint" />
            <mxPoint x="570" y="150" as="targetPoint" />
          </mxGeometry>
        </mxCell>
        <mxCell id="7Y8EHs25oN9bVDLUrfh7-33" value="" style="endArrow=classic;html=1;entryX=0.25;entryY=1;entryDx=0;entryDy=0;" edge="1" parent="1">
          <mxGeometry width="50" height="50" relative="1" as="geometry">
            <mxPoint x="660" y="199.9999999999999" as="sourcePoint" />
            <mxPoint x="660" y="150" as="targetPoint" />
          </mxGeometry>
        </mxCell>
        <mxCell id="7Y8EHs25oN9bVDLUrfh7-34" value="" style="endArrow=classic;html=1;entryX=0.25;entryY=1;entryDx=0;entryDy=0;" edge="1" parent="1">
          <mxGeometry width="50" height="50" relative="1" as="geometry">
            <mxPoint x="750" y="199.9999999999999" as="sourcePoint" />
            <mxPoint x="750" y="150" as="targetPoint" />
          </mxGeometry>
        </mxCell>
        <mxCell id="7Y8EHs25oN9bVDLUrfh7-35" value="" style="endArrow=none;html=1;" edge="1" parent="1">
          <mxGeometry width="50" height="50" relative="1" as="geometry">
            <mxPoint x="480" y="200" as="sourcePoint" />
            <mxPoint x="750" y="200" as="targetPoint" />
          </mxGeometry>
        </mxCell>
        <mxCell id="7Y8EHs25oN9bVDLUrfh7-36" value="" style="endArrow=none;html=1;exitX=0.5;exitY=0;exitDx=0;exitDy=0;exitPerimeter=0;endFill=0;startArrow=classic;startFill=1;" edge="1" parent="1" source="7Y8EHs25oN9bVDLUrfh7-30">
          <mxGeometry width="50" height="50" relative="1" as="geometry">
            <mxPoint x="560" y="310" as="sourcePoint" />
            <mxPoint x="640" y="200" as="targetPoint" />
          </mxGeometry>
        </mxCell>
        <mxCell id="7Y8EHs25oN9bVDLUrfh7-38" value="Owner Page" style="text;html=1;align=center;verticalAlign=middle;resizable=0;points=[];autosize=1;" vertex="1" parent="1">
          <mxGeometry x="83" y="10" width="80" height="20" as="geometry" />
        </mxCell>
        <mxCell id="7Y8EHs25oN9bVDLUrfh7-39" value="Order Confirmation" style="text;html=1;align=center;verticalAlign=middle;resizable=0;points=[];autosize=1;" vertex="1" parent="1">
          <mxGeometry x="50" y="340" width="120" height="20" as="geometry" />
        </mxCell>
        <mxCell id="7Y8EHs25oN9bVDLUrfh7-41" value="Incomming order" style="shape=hexagon;perimeter=hexagonPerimeter2;whiteSpace=wrap;html=1;fixedSize=1;" vertex="1" parent="1">
          <mxGeometry x="290" y="480" width="80" height="80" as="geometry" />
        </mxCell>
        <mxCell id="7Y8EHs25oN9bVDLUrfh7-42" value="Specifik time" style="whiteSpace=wrap;html=1;aspect=fixed;" vertex="1" parent="1">
          <mxGeometry x="230" y="380" width="80" height="80" as="geometry" />
        </mxCell>
        <mxCell id="7Y8EHs25oN9bVDLUrfh7-43" value="" style="endArrow=classic;html=1;entryX=0.228;entryY=0.001;entryDx=0;entryDy=0;entryPerimeter=0;exitX=1;exitY=1;exitDx=0;exitDy=0;" edge="1" parent="1" target="7Y8EHs25oN9bVDLUrfh7-41">
          <mxGeometry width="50" height="50" relative="1" as="geometry">
            <mxPoint x="309" y="460" as="sourcePoint" />
            <mxPoint x="339" y="480" as="targetPoint" />
          </mxGeometry>
        </mxCell>
        <mxCell id="7Y8EHs25oN9bVDLUrfh7-44" value="Messages" style="whiteSpace=wrap;html=1;aspect=fixed;" vertex="1" parent="1">
          <mxGeometry x="392.5" y="380" width="80" height="80" as="geometry" />
        </mxCell>
        <mxCell id="7Y8EHs25oN9bVDLUrfh7-45" value="" style="endArrow=classic;html=1;entryX=0.763;entryY=0;entryDx=0;entryDy=0;entryPerimeter=0;" edge="1" parent="1" target="7Y8EHs25oN9bVDLUrfh7-41">
          <mxGeometry width="50" height="50" relative="1" as="geometry">
            <mxPoint x="390" y="460" as="sourcePoint" />
            <mxPoint x="580" y="520" as="targetPoint" />
          </mxGeometry>
        </mxCell>
        <mxCell id="7Y8EHs25oN9bVDLUrfh7-47" style="edgeStyle=orthogonalEdgeStyle;rounded=0;orthogonalLoop=1;jettySize=auto;html=1;startArrow=none;startFill=0;endArrow=classic;endFill=1;entryX=1;entryY=0.5;entryDx=0;entryDy=0;" edge="1" parent="1" source="7Y8EHs25oN9bVDLUrfh7-46" target="7Y8EHs25oN9bVDLUrfh7-41">
          <mxGeometry relative="1" as="geometry">
            <mxPoint x="371" y="515" as="targetPoint" />
          </mxGeometry>
        </mxCell>
        <mxCell id="7Y8EHs25oN9bVDLUrfh7-46" value="Menu Item" style="whiteSpace=wrap;html=1;aspect=fixed;" vertex="1" parent="1">
          <mxGeometry x="395" y="480" width="80" height="80" as="geometry" />
        </mxCell>
        <mxCell id="7Y8EHs25oN9bVDLUrfh7-48" value="" style="endArrow=classic;html=1;exitX=0.223;exitY=1.004;exitDx=0;exitDy=0;exitPerimeter=0;" edge="1" parent="1" source="7Y8EHs25oN9bVDLUrfh7-41">
          <mxGeometry width="50" height="50" relative="1" as="geometry">
            <mxPoint x="300" y="680" as="sourcePoint" />
            <mxPoint x="308" y="620" as="targetPoint" />
          </mxGeometry>
        </mxCell>
        <mxCell id="7Y8EHs25oN9bVDLUrfh7-50" value="Confirm" style="rhombus;whiteSpace=wrap;html=1;" vertex="1" parent="1">
          <mxGeometry x="268" y="620" width="80" height="80" as="geometry" />
        </mxCell>
        <mxCell id="7Y8EHs25oN9bVDLUrfh7-51" value="Placed order" style="whiteSpace=wrap;html=1;aspect=fixed;" vertex="1" parent="1">
          <mxGeometry x="67" y="460" width="80" height="80" as="geometry" />
        </mxCell>
        <mxCell id="7Y8EHs25oN9bVDLUrfh7-52" value="" style="endArrow=classic;html=1;entryX=0;entryY=0.5;entryDx=0;entryDy=0;exitX=1;exitY=0.75;exitDx=0;exitDy=0;" edge="1" parent="1" source="7Y8EHs25oN9bVDLUrfh7-51" target="7Y8EHs25oN9bVDLUrfh7-41">
          <mxGeometry width="50" height="50" relative="1" as="geometry">
            <mxPoint x="210" y="630" as="sourcePoint" />
            <mxPoint x="260" y="580" as="targetPoint" />
          </mxGeometry>
        </mxCell>
        <mxCell id="7Y8EHs25oN9bVDLUrfh7-54" value="" style="endArrow=classic;html=1;entryX=0.75;entryY=1;entryDx=0;entryDy=0;" edge="1" parent="1" target="7Y8EHs25oN9bVDLUrfh7-56">
          <mxGeometry width="50" height="50" relative="1" as="geometry">
            <mxPoint x="190" y="660" as="sourcePoint" />
            <mxPoint x="200" y="620" as="targetPoint" />
          </mxGeometry>
        </mxCell>
        <mxCell id="7Y8EHs25oN9bVDLUrfh7-55" value="" style="endArrow=none;html=1;entryX=0;entryY=0.5;entryDx=0;entryDy=0;" edge="1" parent="1" target="7Y8EHs25oN9bVDLUrfh7-50">
          <mxGeometry width="50" height="50" relative="1" as="geometry">
            <mxPoint x="190" y="660" as="sourcePoint" />
            <mxPoint x="260" y="670" as="targetPoint" />
            <Array as="points">
              <mxPoint x="230" y="660" />
            </Array>
          </mxGeometry>
        </mxCell>
        <mxCell id="7Y8EHs25oN9bVDLUrfh7-58" value="False" style="edgeLabel;html=1;align=center;verticalAlign=middle;resizable=0;points=[];" vertex="1" connectable="0" parent="7Y8EHs25oN9bVDLUrfh7-55">
          <mxGeometry x="-0.3223" relative="1" as="geometry">
            <mxPoint as="offset" />
          </mxGeometry>
        </mxCell>
        <mxCell id="7Y8EHs25oN9bVDLUrfh7-56" value="Order Failed Message from owner" style="whiteSpace=wrap;html=1;aspect=fixed;" vertex="1" parent="1">
          <mxGeometry x="130" y="560" width="80" height="80" as="geometry" />
        </mxCell>
        <mxCell id="7Y8EHs25oN9bVDLUrfh7-57" value="" style="endArrow=classic;html=1;exitX=0;exitY=0;exitDx=0;exitDy=0;" edge="1" parent="1" source="7Y8EHs25oN9bVDLUrfh7-56">
          <mxGeometry width="50" height="50" relative="1" as="geometry">
            <mxPoint x="90" y="610" as="sourcePoint" />
            <mxPoint x="130" y="540" as="targetPoint" />
          </mxGeometry>
        </mxCell>
        <mxCell id="7Y8EHs25oN9bVDLUrfh7-59" value="" style="endArrow=classic;html=1;exitX=1;exitY=0.5;exitDx=0;exitDy=0;" edge="1" parent="1" source="7Y8EHs25oN9bVDLUrfh7-50">
          <mxGeometry width="50" height="50" relative="1" as="geometry">
            <mxPoint x="370" y="690" as="sourcePoint" />
            <mxPoint x="400" y="660" as="targetPoint" />
            <Array as="points">
              <mxPoint x="360" y="660" />
            </Array>
          </mxGeometry>
        </mxCell>
        <mxCell id="7Y8EHs25oN9bVDLUrfh7-60" value="True" style="edgeLabel;html=1;align=center;verticalAlign=middle;resizable=0;points=[];" vertex="1" connectable="0" parent="7Y8EHs25oN9bVDLUrfh7-59">
          <mxGeometry x="0.0952" relative="1" as="geometry">
            <mxPoint as="offset" />
          </mxGeometry>
        </mxCell>
        <mxCell id="7Y8EHs25oN9bVDLUrfh7-61" value="Checkout prompt" style="whiteSpace=wrap;html=1;aspect=fixed;" vertex="1" parent="1">
          <mxGeometry x="540" y="622.5" width="80" height="80" as="geometry" />
        </mxCell>
        <mxCell id="7Y8EHs25oN9bVDLUrfh7-63" value="Customer&lt;br&gt;Confirmation" style="rhombus;whiteSpace=wrap;html=1;" vertex="1" parent="1">
          <mxGeometry x="400" y="615" width="100" height="95" as="geometry" />
        </mxCell>
        <mxCell id="7Y8EHs25oN9bVDLUrfh7-68" value="" style="endArrow=none;html=1;" edge="1" parent="1">
          <mxGeometry width="50" height="50" relative="1" as="geometry">
            <mxPoint x="60" y="720" as="sourcePoint" />
            <mxPoint x="450" y="720" as="targetPoint" />
          </mxGeometry>
        </mxCell>
        <mxCell id="7Y8EHs25oN9bVDLUrfh7-101" value="Canceled" style="edgeLabel;html=1;align=center;verticalAlign=middle;resizable=0;points=[];" vertex="1" connectable="0" parent="7Y8EHs25oN9bVDLUrfh7-68">
          <mxGeometry x="0.5128" y="-3" relative="1" as="geometry">
            <mxPoint as="offset" />
          </mxGeometry>
        </mxCell>
        <mxCell id="7Y8EHs25oN9bVDLUrfh7-70" value="" style="endArrow=none;html=1;entryX=0.5;entryY=1;entryDx=0;entryDy=0;" edge="1" parent="1" target="7Y8EHs25oN9bVDLUrfh7-63">
          <mxGeometry width="50" height="50" relative="1" as="geometry">
            <mxPoint x="450" y="720" as="sourcePoint" />
            <mxPoint x="520" y="730" as="targetPoint" />
          </mxGeometry>
        </mxCell>
        <mxCell id="7Y8EHs25oN9bVDLUrfh7-71" value="Order Canceled" style="whiteSpace=wrap;html=1;aspect=fixed;" vertex="1" parent="1">
          <mxGeometry x="40" y="560" width="80" height="80" as="geometry" />
        </mxCell>
        <mxCell id="7Y8EHs25oN9bVDLUrfh7-72" value="" style="endArrow=classic;html=1;entryX=0.25;entryY=1;entryDx=0;entryDy=0;" edge="1" parent="1" target="7Y8EHs25oN9bVDLUrfh7-71">
          <mxGeometry width="50" height="50" relative="1" as="geometry">
            <mxPoint x="60" y="720" as="sourcePoint" />
            <mxPoint x="100" y="660" as="targetPoint" />
          </mxGeometry>
        </mxCell>
        <mxCell id="7Y8EHs25oN9bVDLUrfh7-73" value="" style="endArrow=classic;html=1;exitX=0.75;exitY=0;exitDx=0;exitDy=0;entryX=0.413;entryY=1;entryDx=0;entryDy=0;entryPerimeter=0;endFill=1;" edge="1" parent="1" source="7Y8EHs25oN9bVDLUrfh7-71" target="7Y8EHs25oN9bVDLUrfh7-51">
          <mxGeometry width="50" height="50" relative="1" as="geometry">
            <mxPoint x="30" y="520" as="sourcePoint" />
            <mxPoint x="80" y="520" as="targetPoint" />
          </mxGeometry>
        </mxCell>
        <mxCell id="7Y8EHs25oN9bVDLUrfh7-74" value="" style="endArrow=classic;html=1;entryX=0;entryY=0.5;entryDx=0;entryDy=0;exitX=1;exitY=0.5;exitDx=0;exitDy=0;" edge="1" parent="1" source="7Y8EHs25oN9bVDLUrfh7-63" target="7Y8EHs25oN9bVDLUrfh7-61">
          <mxGeometry width="50" height="50" relative="1" as="geometry">
            <mxPoint x="560" y="790" as="sourcePoint" />
            <mxPoint x="610" y="740" as="targetPoint" />
          </mxGeometry>
        </mxCell>
        <mxCell id="7Y8EHs25oN9bVDLUrfh7-75" value="Payment" style="rhombus;whiteSpace=wrap;html=1;" vertex="1" parent="1">
          <mxGeometry x="540" y="740" width="80" height="80" as="geometry" />
        </mxCell>
        <mxCell id="7Y8EHs25oN9bVDLUrfh7-76" value="" style="endArrow=classic;html=1;entryX=0.5;entryY=0;entryDx=0;entryDy=0;exitX=0.5;exitY=1;exitDx=0;exitDy=0;" edge="1" parent="1" source="7Y8EHs25oN9bVDLUrfh7-61" target="7Y8EHs25oN9bVDLUrfh7-75">
          <mxGeometry width="50" height="50" relative="1" as="geometry">
            <mxPoint x="440" y="830" as="sourcePoint" />
            <mxPoint x="490" y="780" as="targetPoint" />
          </mxGeometry>
        </mxCell>
        <mxCell id="7Y8EHs25oN9bVDLUrfh7-78" value="" style="endArrow=none;html=1;" edge="1" parent="1">
          <mxGeometry width="50" height="50" relative="1" as="geometry">
            <mxPoint x="270" y="780" as="sourcePoint" />
            <mxPoint x="270" y="720" as="targetPoint" />
          </mxGeometry>
        </mxCell>
        <mxCell id="7Y8EHs25oN9bVDLUrfh7-79" value="" style="endArrow=none;html=1;entryX=0;entryY=0.5;entryDx=0;entryDy=0;" edge="1" parent="1" target="7Y8EHs25oN9bVDLUrfh7-75">
          <mxGeometry width="50" height="50" relative="1" as="geometry">
            <mxPoint x="270" y="780" as="sourcePoint" />
            <mxPoint x="520" y="770" as="targetPoint" />
          </mxGeometry>
        </mxCell>
        <mxCell id="7Y8EHs25oN9bVDLUrfh7-80" value="Canceled" style="edgeLabel;html=1;align=center;verticalAlign=middle;resizable=0;points=[];" vertex="1" connectable="0" parent="7Y8EHs25oN9bVDLUrfh7-79">
          <mxGeometry x="-0.3205" y="-1" relative="1" as="geometry">
            <mxPoint as="offset" />
          </mxGeometry>
        </mxCell>
        <mxCell id="7Y8EHs25oN9bVDLUrfh7-81" value="Try again" style="whiteSpace=wrap;html=1;aspect=fixed;" vertex="1" parent="1">
          <mxGeometry x="680" y="622.5" width="80" height="80" as="geometry" />
        </mxCell>
        <mxCell id="7Y8EHs25oN9bVDLUrfh7-82" value="" style="endArrow=classic;html=1;entryX=0.388;entryY=1.006;entryDx=0;entryDy=0;entryPerimeter=0;" edge="1" parent="1" target="7Y8EHs25oN9bVDLUrfh7-81">
          <mxGeometry width="50" height="50" relative="1" as="geometry">
            <mxPoint x="710" y="780" as="sourcePoint" />
            <mxPoint x="700" y="730" as="targetPoint" />
          </mxGeometry>
        </mxCell>
        <mxCell id="7Y8EHs25oN9bVDLUrfh7-83" value="" style="endArrow=none;html=1;exitX=1;exitY=0.5;exitDx=0;exitDy=0;" edge="1" parent="1" source="7Y8EHs25oN9bVDLUrfh7-75">
          <mxGeometry width="50" height="50" relative="1" as="geometry">
            <mxPoint x="650" y="890" as="sourcePoint" />
            <mxPoint x="710" y="780" as="targetPoint" />
          </mxGeometry>
        </mxCell>
        <mxCell id="7Y8EHs25oN9bVDLUrfh7-99" value="Failed" style="edgeLabel;html=1;align=center;verticalAlign=middle;resizable=0;points=[];" vertex="1" connectable="0" parent="7Y8EHs25oN9bVDLUrfh7-83">
          <mxGeometry x="0.3429" y="-1" relative="1" as="geometry">
            <mxPoint as="offset" />
          </mxGeometry>
        </mxCell>
        <mxCell id="7Y8EHs25oN9bVDLUrfh7-84" value="" style="endArrow=classic;html=1;entryX=1;entryY=0.75;entryDx=0;entryDy=0;exitX=0;exitY=0.75;exitDx=0;exitDy=0;" edge="1" parent="1" source="7Y8EHs25oN9bVDLUrfh7-81" target="7Y8EHs25oN9bVDLUrfh7-61">
          <mxGeometry width="50" height="50" relative="1" as="geometry">
            <mxPoint x="650" y="910" as="sourcePoint" />
            <mxPoint x="700" y="860" as="targetPoint" />
          </mxGeometry>
        </mxCell>
        <mxCell id="7Y8EHs25oN9bVDLUrfh7-86" value="" style="endArrow=none;html=1;entryX=0.5;entryY=1;entryDx=0;entryDy=0;exitX=1;exitY=0.75;exitDx=0;exitDy=0;" edge="1" parent="1" source="7Y8EHs25oN9bVDLUrfh7-87" target="7Y8EHs25oN9bVDLUrfh7-75">
          <mxGeometry width="50" height="50" relative="1" as="geometry">
            <mxPoint x="220" y="820" as="sourcePoint" />
            <mxPoint x="540" y="810" as="targetPoint" />
          </mxGeometry>
        </mxCell>
        <mxCell id="7Y8EHs25oN9bVDLUrfh7-100" value="Sucess" style="edgeLabel;html=1;align=center;verticalAlign=middle;resizable=0;points=[];" vertex="1" connectable="0" parent="7Y8EHs25oN9bVDLUrfh7-86">
          <mxGeometry x="-0.1927" y="-3" relative="1" as="geometry">
            <mxPoint as="offset" />
          </mxGeometry>
        </mxCell>
        <mxCell id="7Y8EHs25oN9bVDLUrfh7-87" value="Order complete estimated delivery time" style="whiteSpace=wrap;html=1;aspect=fixed;" vertex="1" parent="1">
          <mxGeometry x="49" y="760" width="80" height="80" as="geometry" />
        </mxCell>
        <mxCell id="7Y8EHs25oN9bVDLUrfh7-88" value="Order complete estimated delivery time" style="whiteSpace=wrap;html=1;aspect=fixed;" vertex="1" parent="1">
          <mxGeometry x="312.5" y="980" width="80" height="80" as="geometry" />
        </mxCell>
        <mxCell id="7Y8EHs25oN9bVDLUrfh7-89" value="Hot seat order edit" style="text;html=1;align=center;verticalAlign=middle;resizable=0;points=[];autosize=1;" vertex="1" parent="1">
          <mxGeometry x="40" y="850" width="110" height="20" as="geometry" />
        </mxCell>
        <mxCell id="7Y8EHs25oN9bVDLUrfh7-98" style="edgeStyle=orthogonalEdgeStyle;rounded=0;orthogonalLoop=1;jettySize=auto;html=1;entryX=0;entryY=0.75;entryDx=0;entryDy=0;startArrow=none;startFill=0;endArrow=classic;endFill=1;" edge="1" parent="1" source="7Y8EHs25oN9bVDLUrfh7-92" target="7Y8EHs25oN9bVDLUrfh7-88">
          <mxGeometry relative="1" as="geometry" />
        </mxCell>
        <mxCell id="7Y8EHs25oN9bVDLUrfh7-92" value="Owner Change allready placed order" style="shape=hexagon;perimeter=hexagonPerimeter2;whiteSpace=wrap;html=1;fixedSize=1;" vertex="1" parent="1">
          <mxGeometry x="112.5" y="1000" width="120" height="80" as="geometry" />
        </mxCell>
        <mxCell id="7Y8EHs25oN9bVDLUrfh7-93" value="Message" style="whiteSpace=wrap;html=1;aspect=fixed;" vertex="1" parent="1">
          <mxGeometry x="40" y="885" width="80" height="80" as="geometry" />
        </mxCell>
        <mxCell id="7Y8EHs25oN9bVDLUrfh7-94" value="" style="endArrow=classic;html=1;entryX=0.163;entryY=-0.012;entryDx=0;entryDy=0;exitX=1;exitY=1;exitDx=0;exitDy=0;entryPerimeter=0;" edge="1" parent="1" source="7Y8EHs25oN9bVDLUrfh7-93" target="7Y8EHs25oN9bVDLUrfh7-92">
          <mxGeometry width="50" height="50" relative="1" as="geometry">
            <mxPoint x="-52" y="1000" as="sourcePoint" />
            <mxPoint x="-2" y="950" as="targetPoint" />
          </mxGeometry>
        </mxCell>
        <mxCell id="7Y8EHs25oN9bVDLUrfh7-95" value="New time" style="whiteSpace=wrap;html=1;aspect=fixed;" vertex="1" parent="1">
          <mxGeometry x="239" y="885" width="80" height="80" as="geometry" />
        </mxCell>
        <mxCell id="7Y8EHs25oN9bVDLUrfh7-96" value="" style="endArrow=classic;html=1;exitX=0;exitY=1;exitDx=0;exitDy=0;" edge="1" parent="1" source="7Y8EHs25oN9bVDLUrfh7-95">
          <mxGeometry width="50" height="50" relative="1" as="geometry">
            <mxPoint x="348" y="1080" as="sourcePoint" />
            <mxPoint x="211" y="996" as="targetPoint" />
          </mxGeometry>
        </mxCell>
        <mxCell id="7Y8EHs25oN9bVDLUrfh7-102" value="" style="endArrow=classic;html=1;entryX=0.5;entryY=0;entryDx=0;entryDy=0;exitX=0.5;exitY=1;exitDx=0;exitDy=0;" edge="1" parent="1" source="7Y8EHs25oN9bVDLUrfh7-12" target="7Y8EHs25oN9bVDLUrfh7-14">
          <mxGeometry width="50" height="50" relative="1" as="geometry">
            <mxPoint x="290" y="330" as="sourcePoint" />
            <mxPoint x="340" y="280" as="targetPoint" />
          </mxGeometry>
        </mxCell>
      </root>
    </mxGraphModel>
  </diagram>
</mxfile>
